<?xml version="1.0" encoding="us-ascii" standalone="no"?><svg xmlns="http://www.w3.org/2000/svg" xmlns:xlink="http://www.w3.org/1999/xlink" contentStyleType="text/css" height="502px" preserveAspectRatio="none" style="width:182px;height:502px;background:#FFFFFF;" version="1.1" viewBox="0 0 182 502" width="182px" zoomAndPan="magnify"><defs/><g><ellipse cx="91" cy="20" fill="#222222" rx="10" ry="10" style="stroke:#222222;stroke-width:1.0;"/><rect fill="#90EE90" height="82.2656" style="stroke:#000000;stroke-width:1.5;" width="114" x="34" y="40"/><path d="M53,40 L53,49.2969 L43,59.2969 L34,59.2969 " fill="none" style="stroke:#000000;stroke-width:1.5;"/><text fill="#000000" font-family="sans-serif" font-size="14" lengthAdjust="spacing" textLength="9" x="37" y="53.9951">1</text><rect fill="#F1F1F1" height="33.9688" rx="12.5" ry="12.5" style="stroke:#181818;stroke-width:0.5;" width="94" x="44" y="76.2969"/><text fill="#000000" font-family="sans-serif" font-size="12" lengthAdjust="spacing" textLength="74" x="54" y="97.4355">Emiss&#227;o [1]</text><rect fill="#00FFFF" height="82.2656" style="stroke:#000000;stroke-width:1.5;" width="141" x="20.5" y="132.2656"/><path d="M39.5,132.2656 L39.5,141.5625 L29.5,151.5625 L20.5,151.5625 " fill="none" style="stroke:#000000;stroke-width:1.5;"/><text fill="#000000" font-family="sans-serif" font-size="14" lengthAdjust="spacing" textLength="9" x="23.5" y="146.2607">2</text><rect fill="#F1F1F1" height="33.9688" rx="12.5" ry="12.5" style="stroke:#181818;stroke-width:0.5;" width="121" x="30.5" y="168.5625"/><text fill="#000000" font-family="sans-serif" font-size="12" lengthAdjust="spacing" textLength="101" x="40.5" y="189.7012">Manipula&#231;&#227;o [2]</text><rect fill="#F0E68C" height="82.2656" style="stroke:#000000;stroke-width:1.5;" width="109" x="36.5" y="224.5313"/><path d="M55.5,224.5313 L55.5,233.8281 L45.5,243.8281 L36.5,243.8281 " fill="none" style="stroke:#000000;stroke-width:1.5;"/><text fill="#000000" font-family="sans-serif" font-size="14" lengthAdjust="spacing" textLength="9" x="39.5" y="238.5264">3</text><rect fill="#F1F1F1" height="33.9688" rx="12.5" ry="12.5" style="stroke:#181818;stroke-width:0.5;" width="89" x="46.5" y="260.8281"/><text fill="#000000" font-family="sans-serif" font-size="12" lengthAdjust="spacing" textLength="69" x="56.5" y="281.9668">Rea&#231;&#227;o [3]</text><rect fill="#FFE4B5" height="82.2656" style="stroke:#000000;stroke-width:1.5;" width="122" x="30" y="316.7969"/><path d="M49,316.7969 L49,326.0938 L39,336.0938 L30,336.0938 " fill="none" style="stroke:#000000;stroke-width:1.5;"/><text fill="#000000" font-family="sans-serif" font-size="14" lengthAdjust="spacing" textLength="9" x="33" y="330.792">4</text><rect fill="#F1F1F1" height="33.9688" rx="12.5" ry="12.5" style="stroke:#181818;stroke-width:0.5;" width="102" x="40" y="353.0938"/><text fill="#000000" font-family="sans-serif" font-size="12" lengthAdjust="spacing" textLength="82" x="50" y="374.2324">Detec&#231;&#227;o [4]</text><rect fill="#FF6347" height="82.2656" style="stroke:#000000;stroke-width:1.5;" width="160" x="11" y="409.0625"/><path d="M30,409.0625 L30,418.3594 L20,428.3594 L11,428.3594 " fill="none" style="stroke:#000000;stroke-width:1.5;"/><text fill="#000000" font-family="sans-serif" font-size="14" lengthAdjust="spacing" textLength="9" x="14" y="423.0576">5</text><rect fill="#F1F1F1" height="33.9688" rx="12.5" ry="12.5" style="stroke:#181818;stroke-width:0.5;" width="140" x="21" y="445.3594"/><text fill="#000000" font-family="sans-serif" font-size="12" lengthAdjust="spacing" textLength="120" x="31" y="466.498">Processamento [5]</text><line style="stroke:#181818;stroke-width:1.0;" x1="91" x2="91" y1="30" y2="76.2969"/><polygon fill="#181818" points="87,66.2969,91,76.2969,95,66.2969,91,70.2969" style="stroke:#181818;stroke-width:1.0;"/><line style="stroke:#181818;stroke-width:1.0;" x1="91" x2="91" y1="110.2656" y2="168.5625"/><polygon fill="#181818" points="87,158.5625,91,168.5625,95,158.5625,91,162.5625" style="stroke:#181818;stroke-width:1.0;"/><line style="stroke:#181818;stroke-width:1.0;" x1="91" x2="91" y1="202.5313" y2="260.8281"/><polygon fill="#181818" points="87,250.8281,91,260.8281,95,250.8281,91,254.8281" style="stroke:#181818;stroke-width:1.0;"/><line style="stroke:#181818;stroke-width:1.0;" x1="91" x2="91" y1="294.7969" y2="353.0938"/><polygon fill="#181818" points="87,343.0938,91,353.0938,95,343.0938,91,347.0938" style="stroke:#181818;stroke-width:1.0;"/><line style="stroke:#181818;stroke-width:1.0;" x1="91" x2="91" y1="387.0625" y2="445.3594"/><polygon fill="#181818" points="87,435.3594,91,445.3594,95,435.3594,91,439.3594" style="stroke:#181818;stroke-width:1.0;"/><!--SRC=[Aov9B2hXAW0IcIMP-NaAoZcPwHabxaMfgNaAIePArLmA2bQkkPd5nOSNvoj46yPQSzKYgtQkJ0IgCuAeyqtCoomepKayl1ois0XTiNT6OdQcWf8nH7LGAaoXCRf2t_pavCJYJA399X2rBgabgSbGrIRegaFoSnDByXMKJ25g0uhoarEBYnDpK_E0ej6cOEK0]--></g></svg>